<mxfile host="app.diagrams.net" modified="2023-08-13T08:40:29.877Z" agent="Mozilla/5.0 (Macintosh; Intel Mac OS X 10_15_7) AppleWebKit/537.36 (KHTML, like Gecko) Chrome/115.0.0.0 Safari/537.36" etag="0JhO3aRvZdvfZ-0Dvomc" version="21.6.8" type="device">
  <diagram name="Page-1" id="lZM6IH85VAgq1IFgV6-U">
    <mxGraphModel dx="954" dy="564" grid="1" gridSize="10" guides="1" tooltips="1" connect="1" arrows="1" fold="1" page="1" pageScale="1" pageWidth="827" pageHeight="1169" math="0" shadow="0">
      <root>
        <mxCell id="0" />
        <mxCell id="1" parent="0" />
        <mxCell id="l0xCgjU5YbAfP5p52C_O-1" value="Owner&lt;br&gt;&amp;amp;&lt;br&gt;Customer" style="shape=umlActor;verticalLabelPosition=bottom;verticalAlign=top;html=1;outlineConnect=0;" parent="1" vertex="1">
          <mxGeometry x="30" y="420" width="30" height="60" as="geometry" />
        </mxCell>
        <object label="Admin&lt;br&gt;" Admin="" id="l0xCgjU5YbAfP5p52C_O-4">
          <mxCell style="shape=umlActor;verticalLabelPosition=bottom;verticalAlign=top;html=1;outlineConnect=0;" parent="1" vertex="1">
            <mxGeometry x="795" y="420" width="30" height="60" as="geometry" />
          </mxCell>
        </object>
        <mxCell id="l0xCgjU5YbAfP5p52C_O-6" value="Login" style="ellipse;whiteSpace=wrap;html=1;" parent="1" vertex="1">
          <mxGeometry x="370" y="40" width="100" height="30" as="geometry" />
        </mxCell>
        <mxCell id="l0xCgjU5YbAfP5p52C_O-7" style="edgeStyle=orthogonalEdgeStyle;rounded=0;orthogonalLoop=1;jettySize=auto;html=1;exitX=0.5;exitY=1;exitDx=0;exitDy=0;" parent="1" source="l0xCgjU5YbAfP5p52C_O-6" target="l0xCgjU5YbAfP5p52C_O-6" edge="1">
          <mxGeometry relative="1" as="geometry" />
        </mxCell>
        <mxCell id="l0xCgjU5YbAfP5p52C_O-9" value="Authentication&lt;br&gt;" style="ellipse;whiteSpace=wrap;html=1;" parent="1" vertex="1">
          <mxGeometry x="450" y="90" width="95" height="40" as="geometry" />
        </mxCell>
        <mxCell id="l0xCgjU5YbAfP5p52C_O-10" value="Register" style="ellipse;whiteSpace=wrap;html=1;" parent="1" vertex="1">
          <mxGeometry x="470" y="170" width="80" height="30" as="geometry" />
        </mxCell>
        <mxCell id="l0xCgjU5YbAfP5p52C_O-13" value="" style="endArrow=none;html=1;rounded=0;entryX=0;entryY=0.5;entryDx=0;entryDy=0;" parent="1" target="l0xCgjU5YbAfP5p52C_O-6" edge="1">
          <mxGeometry width="50" height="50" relative="1" as="geometry">
            <mxPoint x="100" y="440" as="sourcePoint" />
            <mxPoint x="200" y="100" as="targetPoint" />
          </mxGeometry>
        </mxCell>
        <mxCell id="l0xCgjU5YbAfP5p52C_O-14" value="" style="endArrow=none;html=1;rounded=0;" parent="1" edge="1">
          <mxGeometry width="50" height="50" relative="1" as="geometry">
            <mxPoint x="71" y="441" as="sourcePoint" />
            <mxPoint x="101" y="441" as="targetPoint" />
          </mxGeometry>
        </mxCell>
        <mxCell id="l0xCgjU5YbAfP5p52C_O-20" value="&amp;lt;&amp;lt;include&amp;gt;&amp;gt;" style="endArrow=none;dashed=1;html=1;dashPattern=1 3;strokeWidth=2;rounded=0;entryX=1;entryY=0;entryDx=0;entryDy=0;exitX=0.5;exitY=1;exitDx=0;exitDy=0;" parent="1" source="l0xCgjU5YbAfP5p52C_O-9" target="l0xCgjU5YbAfP5p52C_O-10" edge="1">
          <mxGeometry width="50" height="50" relative="1" as="geometry">
            <mxPoint x="410" y="150" as="sourcePoint" />
            <mxPoint x="450" y="240" as="targetPoint" />
            <Array as="points" />
          </mxGeometry>
        </mxCell>
        <mxCell id="l0xCgjU5YbAfP5p52C_O-21" value="Profile" style="ellipse;whiteSpace=wrap;html=1;" parent="1" vertex="1">
          <mxGeometry x="320" y="230" width="80" height="30" as="geometry" />
        </mxCell>
        <mxCell id="l0xCgjU5YbAfP5p52C_O-22" value="" style="endArrow=none;html=1;rounded=0;entryX=0;entryY=0.5;entryDx=0;entryDy=0;" parent="1" target="l0xCgjU5YbAfP5p52C_O-21" edge="1">
          <mxGeometry width="50" height="50" relative="1" as="geometry">
            <mxPoint x="100" y="440" as="sourcePoint" />
            <mxPoint x="460" y="270" as="targetPoint" />
          </mxGeometry>
        </mxCell>
        <mxCell id="l0xCgjU5YbAfP5p52C_O-24" value="" style="endArrow=none;html=1;rounded=0;entryX=1;entryY=0.5;entryDx=0;entryDy=0;" parent="1" target="l0xCgjU5YbAfP5p52C_O-37" edge="1">
          <mxGeometry width="50" height="50" relative="1" as="geometry">
            <mxPoint x="740" y="440" as="sourcePoint" />
            <mxPoint x="640" y="280" as="targetPoint" />
          </mxGeometry>
        </mxCell>
        <mxCell id="l0xCgjU5YbAfP5p52C_O-26" value="" style="endArrow=none;html=1;rounded=0;" parent="1" edge="1">
          <mxGeometry width="50" height="50" relative="1" as="geometry">
            <mxPoint x="741" y="440" as="sourcePoint" />
            <mxPoint x="790" y="440" as="targetPoint" />
          </mxGeometry>
        </mxCell>
        <mxCell id="l0xCgjU5YbAfP5p52C_O-27" value="" style="endArrow=classic;html=1;rounded=0;exitX=0.5;exitY=1;exitDx=0;exitDy=0;entryX=0.5;entryY=0;entryDx=0;entryDy=0;" parent="1" source="l0xCgjU5YbAfP5p52C_O-6" target="l0xCgjU5YbAfP5p52C_O-9" edge="1">
          <mxGeometry width="50" height="50" relative="1" as="geometry">
            <mxPoint x="410" y="320" as="sourcePoint" />
            <mxPoint x="460" y="270" as="targetPoint" />
          </mxGeometry>
        </mxCell>
        <mxCell id="l0xCgjU5YbAfP5p52C_O-29" value="Location" style="ellipse;whiteSpace=wrap;html=1;" parent="1" vertex="1">
          <mxGeometry x="415" y="330" width="80" height="30" as="geometry" />
        </mxCell>
        <mxCell id="l0xCgjU5YbAfP5p52C_O-31" value="Facilites" style="ellipse;whiteSpace=wrap;html=1;" parent="1" vertex="1">
          <mxGeometry x="470" y="265" width="80" height="40" as="geometry" />
        </mxCell>
        <mxCell id="l0xCgjU5YbAfP5p52C_O-32" value="Picture" style="ellipse;whiteSpace=wrap;html=1;" parent="1" vertex="1">
          <mxGeometry x="280" y="300" width="70" height="40" as="geometry" />
        </mxCell>
        <mxCell id="l0xCgjU5YbAfP5p52C_O-34" value="&amp;lt;&amp;lt;include&amp;gt;&amp;gt;" style="endArrow=none;dashed=1;html=1;dashPattern=1 3;strokeWidth=2;rounded=0;exitX=0.5;exitY=1;exitDx=0;exitDy=0;entryX=0.5;entryY=0;entryDx=0;entryDy=0;" parent="1" source="l0xCgjU5YbAfP5p52C_O-21" target="l0xCgjU5YbAfP5p52C_O-32" edge="1">
          <mxGeometry width="50" height="50" relative="1" as="geometry">
            <mxPoint x="410" y="320" as="sourcePoint" />
            <mxPoint x="460" y="270" as="targetPoint" />
          </mxGeometry>
        </mxCell>
        <mxCell id="l0xCgjU5YbAfP5p52C_O-35" value="&amp;lt;&amp;lt;Include&amp;gt;&amp;gt;" style="endArrow=none;dashed=1;html=1;dashPattern=1 3;strokeWidth=2;rounded=0;exitX=0.5;exitY=1;exitDx=0;exitDy=0;entryX=0.5;entryY=0;entryDx=0;entryDy=0;" parent="1" source="l0xCgjU5YbAfP5p52C_O-21" target="l0xCgjU5YbAfP5p52C_O-29" edge="1">
          <mxGeometry width="50" height="50" relative="1" as="geometry">
            <mxPoint x="410" y="320" as="sourcePoint" />
            <mxPoint x="460" y="270" as="targetPoint" />
          </mxGeometry>
        </mxCell>
        <mxCell id="l0xCgjU5YbAfP5p52C_O-36" value="&amp;lt;&amp;lt;include&amp;gt;&amp;gt;" style="endArrow=none;dashed=1;html=1;dashPattern=1 3;strokeWidth=2;rounded=0;entryX=0;entryY=0.5;entryDx=0;entryDy=0;" parent="1" target="l0xCgjU5YbAfP5p52C_O-31" edge="1">
          <mxGeometry width="50" height="50" relative="1" as="geometry">
            <mxPoint x="360" y="260" as="sourcePoint" />
            <mxPoint x="460" y="270" as="targetPoint" />
          </mxGeometry>
        </mxCell>
        <mxCell id="l0xCgjU5YbAfP5p52C_O-37" value="Update owner Status" style="ellipse;whiteSpace=wrap;html=1;" parent="1" vertex="1">
          <mxGeometry x="530" y="215" width="100" height="60" as="geometry" />
        </mxCell>
        <mxCell id="l0xCgjU5YbAfP5p52C_O-38" value="Control of Property" style="ellipse;whiteSpace=wrap;html=1;" parent="1" vertex="1">
          <mxGeometry x="330" y="360" width="130" height="50" as="geometry" />
        </mxCell>
        <mxCell id="l0xCgjU5YbAfP5p52C_O-40" value="" style="endArrow=none;html=1;rounded=0;entryX=0;entryY=0.5;entryDx=0;entryDy=0;" parent="1" target="l0xCgjU5YbAfP5p52C_O-38" edge="1">
          <mxGeometry width="50" height="50" relative="1" as="geometry">
            <mxPoint x="100" y="440" as="sourcePoint" />
            <mxPoint x="345" y="425" as="targetPoint" />
          </mxGeometry>
        </mxCell>
        <mxCell id="l0xCgjU5YbAfP5p52C_O-41" value="" style="endArrow=none;html=1;rounded=0;exitX=1;exitY=0.5;exitDx=0;exitDy=0;" parent="1" source="l0xCgjU5YbAfP5p52C_O-38" edge="1">
          <mxGeometry width="50" height="50" relative="1" as="geometry">
            <mxPoint x="120" y="400" as="sourcePoint" />
            <mxPoint x="740" y="440" as="targetPoint" />
          </mxGeometry>
        </mxCell>
        <mxCell id="l0xCgjU5YbAfP5p52C_O-42" value="Add,Delete,Update status" style="ellipse;whiteSpace=wrap;html=1;" parent="1" vertex="1">
          <mxGeometry x="440" y="420" width="120" height="50" as="geometry" />
        </mxCell>
        <mxCell id="l0xCgjU5YbAfP5p52C_O-43" value="&amp;lt;&amp;lt;include&amp;gt;&amp;gt;" style="endArrow=none;dashed=1;html=1;dashPattern=1 3;strokeWidth=2;rounded=0;exitX=0.5;exitY=1;exitDx=0;exitDy=0;entryX=0;entryY=0.5;entryDx=0;entryDy=0;" parent="1" source="l0xCgjU5YbAfP5p52C_O-38" target="l0xCgjU5YbAfP5p52C_O-42" edge="1">
          <mxGeometry width="50" height="50" relative="1" as="geometry">
            <mxPoint x="410" y="390" as="sourcePoint" />
            <mxPoint x="460" y="340" as="targetPoint" />
          </mxGeometry>
        </mxCell>
        <mxCell id="l0xCgjU5YbAfP5p52C_O-44" value="View Contract" style="ellipse;whiteSpace=wrap;html=1;" parent="1" vertex="1">
          <mxGeometry x="415" y="480" width="115" height="50" as="geometry" />
        </mxCell>
        <mxCell id="l0xCgjU5YbAfP5p52C_O-46" value="" style="endArrow=none;html=1;rounded=0;entryX=0;entryY=0.5;entryDx=0;entryDy=0;" parent="1" target="l0xCgjU5YbAfP5p52C_O-44" edge="1">
          <mxGeometry width="50" height="50" relative="1" as="geometry">
            <mxPoint x="100" y="440" as="sourcePoint" />
            <mxPoint x="460" y="340" as="targetPoint" />
          </mxGeometry>
        </mxCell>
        <mxCell id="l0xCgjU5YbAfP5p52C_O-48" value="" style="endArrow=none;html=1;rounded=0;entryX=1;entryY=0.5;entryDx=0;entryDy=0;" parent="1" target="l0xCgjU5YbAfP5p52C_O-44" edge="1">
          <mxGeometry width="50" height="50" relative="1" as="geometry">
            <mxPoint x="740" y="440" as="sourcePoint" />
            <mxPoint x="373" y="545" as="targetPoint" />
          </mxGeometry>
        </mxCell>
        <mxCell id="l0xCgjU5YbAfP5p52C_O-49" value="Sign and Aggrement" style="ellipse;whiteSpace=wrap;html=1;" parent="1" vertex="1">
          <mxGeometry x="350" y="560" width="100" height="60" as="geometry" />
        </mxCell>
        <mxCell id="l0xCgjU5YbAfP5p52C_O-50" value="&amp;lt;&amp;lt;include&amp;gt;&amp;gt;" style="endArrow=none;dashed=1;html=1;dashPattern=1 3;strokeWidth=2;rounded=0;exitX=1;exitY=0;exitDx=0;exitDy=0;entryX=0.5;entryY=1;entryDx=0;entryDy=0;" parent="1" source="l0xCgjU5YbAfP5p52C_O-49" target="l0xCgjU5YbAfP5p52C_O-44" edge="1">
          <mxGeometry width="50" height="50" relative="1" as="geometry">
            <mxPoint x="410" y="450" as="sourcePoint" />
            <mxPoint x="460" y="400" as="targetPoint" />
          </mxGeometry>
        </mxCell>
        <mxCell id="l0xCgjU5YbAfP5p52C_O-51" value="Payment" style="ellipse;whiteSpace=wrap;html=1;" parent="1" vertex="1">
          <mxGeometry x="255" y="540" width="80" height="40" as="geometry" />
        </mxCell>
        <mxCell id="l0xCgjU5YbAfP5p52C_O-52" value="Online" style="ellipse;whiteSpace=wrap;html=1;" parent="1" vertex="1">
          <mxGeometry x="200" y="620" width="70" height="30" as="geometry" />
        </mxCell>
        <mxCell id="l0xCgjU5YbAfP5p52C_O-53" value="Cash on Hand" style="ellipse;whiteSpace=wrap;html=1;" parent="1" vertex="1">
          <mxGeometry x="300" y="650" width="90" height="40" as="geometry" />
        </mxCell>
        <mxCell id="l0xCgjU5YbAfP5p52C_O-54" value="&amp;lt;&amp;lt;include&amp;gt;&amp;gt;" style="endArrow=none;dashed=1;html=1;dashPattern=1 3;strokeWidth=2;rounded=0;exitX=0.5;exitY=0;exitDx=0;exitDy=0;entryX=0.5;entryY=1;entryDx=0;entryDy=0;" parent="1" source="l0xCgjU5YbAfP5p52C_O-52" target="l0xCgjU5YbAfP5p52C_O-51" edge="1">
          <mxGeometry width="50" height="50" relative="1" as="geometry">
            <mxPoint x="410" y="460" as="sourcePoint" />
            <mxPoint x="460" y="410" as="targetPoint" />
          </mxGeometry>
        </mxCell>
        <mxCell id="l0xCgjU5YbAfP5p52C_O-55" value="&amp;lt;&amp;lt;Include&amp;gt;&amp;gt;" style="endArrow=none;dashed=1;html=1;dashPattern=1 3;strokeWidth=2;rounded=0;exitX=0.5;exitY=0;exitDx=0;exitDy=0;entryX=0.5;entryY=1;entryDx=0;entryDy=0;" parent="1" source="l0xCgjU5YbAfP5p52C_O-53" target="l0xCgjU5YbAfP5p52C_O-51" edge="1">
          <mxGeometry width="50" height="50" relative="1" as="geometry">
            <mxPoint x="165" y="650" as="sourcePoint" />
            <mxPoint x="220" y="600" as="targetPoint" />
          </mxGeometry>
        </mxCell>
        <mxCell id="l0xCgjU5YbAfP5p52C_O-57" value="" style="endArrow=none;html=1;rounded=0;exitX=0;exitY=0;exitDx=0;exitDy=0;" parent="1" source="l0xCgjU5YbAfP5p52C_O-51" edge="1">
          <mxGeometry width="50" height="50" relative="1" as="geometry">
            <mxPoint x="190" y="560" as="sourcePoint" />
            <mxPoint x="100" y="440" as="targetPoint" />
          </mxGeometry>
        </mxCell>
        <mxCell id="l0xCgjU5YbAfP5p52C_O-58" value="Showcase" style="ellipse;whiteSpace=wrap;html=1;" parent="1" vertex="1">
          <mxGeometry x="570" y="540" width="90" height="40" as="geometry" />
        </mxCell>
        <mxCell id="l0xCgjU5YbAfP5p52C_O-59" value="Top profitable room" style="ellipse;whiteSpace=wrap;html=1;" parent="1" vertex="1">
          <mxGeometry x="630" y="620" width="120" height="60" as="geometry" />
        </mxCell>
        <mxCell id="l0xCgjU5YbAfP5p52C_O-60" value="Offer" style="ellipse;whiteSpace=wrap;html=1;" parent="1" vertex="1">
          <mxGeometry x="480" y="620" width="90" height="40" as="geometry" />
        </mxCell>
        <mxCell id="l0xCgjU5YbAfP5p52C_O-61" value="" style="endArrow=none;dashed=1;html=1;dashPattern=1 3;strokeWidth=2;rounded=0;exitX=1;exitY=0;exitDx=0;exitDy=0;entryX=0.5;entryY=1;entryDx=0;entryDy=0;" parent="1" source="l0xCgjU5YbAfP5p52C_O-60" target="l0xCgjU5YbAfP5p52C_O-58" edge="1">
          <mxGeometry width="50" height="50" relative="1" as="geometry">
            <mxPoint x="165" y="650" as="sourcePoint" />
            <mxPoint x="230" y="610" as="targetPoint" />
          </mxGeometry>
        </mxCell>
        <mxCell id="l0xCgjU5YbAfP5p52C_O-62" value="&amp;lt;&amp;lt;include&amp;gt;&amp;gt;" style="endArrow=none;dashed=1;html=1;dashPattern=1 3;strokeWidth=2;rounded=0;exitX=0;exitY=0;exitDx=0;exitDy=0;entryX=0.5;entryY=1;entryDx=0;entryDy=0;" parent="1" source="l0xCgjU5YbAfP5p52C_O-59" target="l0xCgjU5YbAfP5p52C_O-58" edge="1">
          <mxGeometry width="50" height="50" relative="1" as="geometry">
            <mxPoint x="175" y="660" as="sourcePoint" />
            <mxPoint x="640" y="580" as="targetPoint" />
          </mxGeometry>
        </mxCell>
        <mxCell id="l0xCgjU5YbAfP5p52C_O-63" value="" style="endArrow=none;html=1;rounded=0;entryX=0.5;entryY=0;entryDx=0;entryDy=0;" parent="1" target="l0xCgjU5YbAfP5p52C_O-58" edge="1">
          <mxGeometry width="50" height="50" relative="1" as="geometry">
            <mxPoint x="740" y="440" as="sourcePoint" />
            <mxPoint x="540" y="515" as="targetPoint" />
          </mxGeometry>
        </mxCell>
        <mxCell id="l0xCgjU5YbAfP5p52C_O-65" value="Search Property" style="ellipse;whiteSpace=wrap;html=1;" parent="1" vertex="1">
          <mxGeometry x="200" y="710" width="110" height="50" as="geometry" />
        </mxCell>
        <mxCell id="l0xCgjU5YbAfP5p52C_O-66" value="Location" style="ellipse;whiteSpace=wrap;html=1;" parent="1" vertex="1">
          <mxGeometry x="220" y="820" width="90" height="40" as="geometry" />
        </mxCell>
        <mxCell id="l0xCgjU5YbAfP5p52C_O-67" value="Facilities" style="ellipse;whiteSpace=wrap;html=1;" parent="1" vertex="1">
          <mxGeometry x="350" y="780" width="100" height="40" as="geometry" />
        </mxCell>
        <mxCell id="l0xCgjU5YbAfP5p52C_O-69" value="" style="endArrow=none;html=1;rounded=0;exitX=0;exitY=0;exitDx=0;exitDy=0;" parent="1" source="l0xCgjU5YbAfP5p52C_O-65" edge="1">
          <mxGeometry width="50" height="50" relative="1" as="geometry">
            <mxPoint x="210" y="720" as="sourcePoint" />
            <mxPoint x="100" y="440" as="targetPoint" />
          </mxGeometry>
        </mxCell>
        <mxCell id="l0xCgjU5YbAfP5p52C_O-72" value="&amp;lt;&amp;lt;include&amp;gt;&amp;gt;" style="endArrow=none;dashed=1;html=1;dashPattern=1 3;strokeWidth=2;rounded=0;exitX=0;exitY=0;exitDx=0;exitDy=0;entryX=0.5;entryY=1;entryDx=0;entryDy=0;" parent="1" source="l0xCgjU5YbAfP5p52C_O-67" target="l0xCgjU5YbAfP5p52C_O-65" edge="1">
          <mxGeometry width="50" height="50" relative="1" as="geometry">
            <mxPoint x="567" y="636" as="sourcePoint" />
            <mxPoint x="625" y="590" as="targetPoint" />
          </mxGeometry>
        </mxCell>
        <mxCell id="l0xCgjU5YbAfP5p52C_O-73" value="&amp;lt;&amp;lt;include&amp;gt;&amp;gt;" style="endArrow=none;dashed=1;html=1;dashPattern=1 3;strokeWidth=2;rounded=0;exitX=0.5;exitY=0;exitDx=0;exitDy=0;entryX=0.5;entryY=1;entryDx=0;entryDy=0;" parent="1" source="l0xCgjU5YbAfP5p52C_O-66" target="l0xCgjU5YbAfP5p52C_O-65" edge="1">
          <mxGeometry width="50" height="50" relative="1" as="geometry">
            <mxPoint x="375" y="796" as="sourcePoint" />
            <mxPoint x="255" y="780" as="targetPoint" />
          </mxGeometry>
        </mxCell>
        <mxCell id="l0xCgjU5YbAfP5p52C_O-74" value="Message" style="ellipse;whiteSpace=wrap;html=1;" parent="1" vertex="1">
          <mxGeometry x="215" y="920" width="100" height="50" as="geometry" />
        </mxCell>
        <mxCell id="l0xCgjU5YbAfP5p52C_O-77" value="" style="endArrow=none;html=1;rounded=0;exitX=0;exitY=0.5;exitDx=0;exitDy=0;" parent="1" source="l0xCgjU5YbAfP5p52C_O-74" edge="1">
          <mxGeometry width="50" height="50" relative="1" as="geometry">
            <mxPoint x="210" y="965" as="sourcePoint" />
            <mxPoint x="100" y="440" as="targetPoint" />
          </mxGeometry>
        </mxCell>
        <mxCell id="MXXg5mdVhqyGjNhQCzZA-1" value="" style="endArrow=none;html=1;rounded=0;" parent="1" edge="1">
          <mxGeometry width="50" height="50" relative="1" as="geometry">
            <mxPoint x="80" y="20" as="sourcePoint" />
            <mxPoint x="80" y="1040" as="targetPoint" />
          </mxGeometry>
        </mxCell>
        <mxCell id="MXXg5mdVhqyGjNhQCzZA-2" value="" style="endArrow=none;html=1;rounded=0;" parent="1" edge="1">
          <mxGeometry width="50" height="50" relative="1" as="geometry">
            <mxPoint x="80" y="1040" as="sourcePoint" />
            <mxPoint x="780" y="1040" as="targetPoint" />
          </mxGeometry>
        </mxCell>
        <mxCell id="MXXg5mdVhqyGjNhQCzZA-3" value="" style="endArrow=none;html=1;rounded=0;" parent="1" edge="1">
          <mxGeometry width="50" height="50" relative="1" as="geometry">
            <mxPoint x="80" y="20.000000000000057" as="sourcePoint" />
            <mxPoint x="780" y="20.000000000000057" as="targetPoint" />
          </mxGeometry>
        </mxCell>
        <mxCell id="MXXg5mdVhqyGjNhQCzZA-4" value="" style="endArrow=none;html=1;rounded=0;" parent="1" edge="1">
          <mxGeometry width="50" height="50" relative="1" as="geometry">
            <mxPoint x="780" y="20" as="sourcePoint" />
            <mxPoint x="780" y="1040" as="targetPoint" />
          </mxGeometry>
        </mxCell>
        <mxCell id="mdzC7nJiv_q1GwJ5nwKc-1" value="" style="endArrow=none;html=1;rounded=0;entryX=1;entryY=0.5;entryDx=0;entryDy=0;" parent="1" target="l0xCgjU5YbAfP5p52C_O-9" edge="1">
          <mxGeometry width="50" height="50" relative="1" as="geometry">
            <mxPoint x="740" y="440" as="sourcePoint" />
            <mxPoint x="440" y="250" as="targetPoint" />
            <Array as="points">
              <mxPoint x="690" y="280" />
              <mxPoint x="640" y="200" />
            </Array>
          </mxGeometry>
        </mxCell>
      </root>
    </mxGraphModel>
  </diagram>
</mxfile>
